# xmcd
#
# Track frame offsets: 
#        150
#        20329
#        43386
#        59572
#        83115
#        99756
#        123626
#        145384
#        163293
#        182587
#        201185
#        219995
#        246281
#        265355
#        287045
#        309861
#
# Disc length: 4393 seconds
#
# Revision: 0
# Processed by: cddbd v1.5.2PL0 Copyright (c) Steve Scherf et al.
# Submitted via: ExactAudioCopy v0.99pb5
#
DISCID=ee112710
DTITLE=Jimmy LaFave - Favorites 1992-2001
DYEAR=2010
DGENRE=Country
TTITLE0=Desperate Men Do Desperate Things
TTITLE1=Going Home
TTITLE2=Rock And Roll Music To The World
TTITLE3=Only One Angel
TTITLE4=Burden To Bear
TTITLE5=Never Is A Moment
TTITLE6=Sweetheart Like You
TTITLE7=How It Must Remain
TTITLE8=Austin After Midnight
TTITLE9=When It Starts To Rain
TTITLE10=Buffalo Return To The Plains
TTITLE11=On A Bus To St. Cloud
TTITLE12=When I See You Again
TTITLE13=Walk Away Renee
TTITLE14=Into Your Life
TTITLE15=Measuring Words
EXTD=
EXTT0=
EXTT1=
EXTT2=
EXTT3=
EXTT4=
EXTT5=
EXTT6=
EXTT7=
EXTT8=
EXTT9=
EXTT10=
EXTT11=
EXTT12=
EXTT13=
EXTT14=
EXTT15=
PLAYORDER=
